Katibeh-Regular - Kerning, With Production Names.ufo
<glyph name="parenright" format="1">
  <advance width="238"/>
  <unicode hex="0029"/>
  <outline>
    <contour>
      <point x="109" y="92"/>
      <point x="75" y="-6"/>
      <point x="17" y="-52" type="curve"/>
      <point x="29" y="-68" type="line"/>
      <point x="152" y="-17"/>
      <point x="214" y="77"/>
      <point x="214" y="215" type="curve" smooth="yes"/>
      <point x="214" y="353"/>
      <point x="152" y="448"/>
      <point x="29" y="498" type="curve"/>
      <point x="17" y="483" type="line"/>
      <point x="75" y="437"/>
      <point x="109" y="338"/>
      <point x="109" y="215" type="curve" smooth="yes"/>
    </contour>
  </outline>
</glyph>
<glyph name="bracketright" format="1">
  <advance width="261"/>
  <unicode hex="005D"/>
  <outline>
    <contour>
      <point x="193" y="503" type="line"/>
      <point x="5" y="503" type="line"/>
      <point x="5" y="476" type="line"/>
      <point x="57" y="469" type="line"/>
      <point x="85" y="464"/>
      <point x="93" y="456"/>
      <point x="93" y="434" type="curve" smooth="yes"/>
      <point x="93" y="-4" type="line" smooth="yes"/>
      <point x="93" y="-25"/>
      <point x="85" y="-34"/>
      <point x="57" y="-38" type="curve" smooth="yes"/>
      <point x="5" y="-46" type="line"/>
      <point x="5" y="-73" type="line"/>
      <point x="193" y="-73" type="line"/>
    </contour>
  </outline>
</glyph>
<glyph name="uni060B" format="1">
  <advance width="444"/>
  <unicode hex="060B"/>
  <outline>
    <contour>
      <point x="384" y="227"/>
      <point x="369" y="266"/>
      <point x="347" y="289" type="curve" smooth="yes"/>
      <point x="328" y="309"/>
      <point x="300" y="321"/>
      <point x="266" y="321" type="curve" smooth="yes"/>
      <point x="209" y="321"/>
      <point x="170" y="287"/>
      <point x="170" y="228" type="curve" smooth="yes"/>
      <point x="170" y="161" type="line"/>
      <point x="170" y="161"/>
      <point x="210" y="157"/>
      <point x="238" y="146" type="curve" smooth="yes"/>
      <point x="256" y="139"/>
      <point x="278" y="127"/>
      <point x="290" y="111" type="curve"/>
      <point x="290" y="111"/>
      <point x="256" y="107"/>
      <point x="229" y="106" type="curve"/>
      <point x="75" y="106" type="line"/>
      <point x="35" y="0" type="line"/>
      <point x="215" y="0" type="line" smooth="yes"/>
      <point x="251" y="0"/>
      <point x="304" y="14"/>
      <point x="336" y="50" type="curve"/>
      <point x="342" y="40"/>
      <point x="349" y="21"/>
      <point x="351" y="0" type="curve"/>
      <point x="351" y="0"/>
      <point x="361" y="35"/>
      <point x="356" y="77" type="curve"/>
      <point x="376" y="112"/>
      <point x="384" y="149"/>
      <point x="384" y="182" type="curve" smooth="yes"/>
    </contour>
    <contour>
      <point x="327" y="159"/>
      <point x="310" y="178"/>
      <point x="281" y="196" type="curve" smooth="yes"/>
      <point x="265" y="206"/>
      <point x="250" y="212"/>
      <point x="232" y="216" type="curve"/>
      <point x="252" y="228"/>
      <point x="271" y="232"/>
      <point x="286" y="232" type="curve" smooth="yes"/>
      <point x="305" y="232"/>
      <point x="316" y="225"/>
      <point x="324" y="217" type="curve" smooth="yes"/>
      <point x="336" y="205"/>
      <point x="344" y="192"/>
      <point x="344" y="168" type="curve" smooth="yes"/>
      <point x="344" y="156"/>
      <point x="342" y="145"/>
      <point x="338" y="137" type="curve"/>
    </contour>
    <component base="uni0656" xOffset="262" yOffset="67" xScale="1.25" yScale="1.25"/>
    <component base="uniFBB2" xOffset="270" yOffset="-344"/>
  </outline>
</glyph>
<glyph name="uni0612" format="1">
  <advance width="0"/>
  <unicode hex="0612"/>
  <outline>
    <contour>
      <point x="39" y="867" type="line"/>
      <point x="26" y="868" type="line" smooth="yes"/>
      <point x="8" y="868"/>
      <point x="-4" y="871"/>
      <point x="-32" y="878" type="curve" smooth="yes"/>
      <point x="-47" y="882"/>
      <point x="-61" y="885"/>
      <point x="-71" y="885" type="curve" smooth="yes"/>
      <point x="-86" y="885"/>
      <point x="-95" y="877"/>
      <point x="-100" y="871" type="curve" smooth="yes"/>
      <point x="-106" y="863"/>
      <point x="-108" y="855"/>
      <point x="-108" y="846" type="curve" smooth="yes"/>
      <point x="-108" y="830" type="line"/>
      <point x="-108" y="830"/>
      <point x="-90" y="817"/>
      <point x="-82" y="809" type="curve"/>
      <point x="-98" y="793"/>
      <point x="-111" y="768"/>
      <point x="-111" y="735" type="curve" smooth="yes"/>
      <point x="-111" y="727"/>
      <point x="-110" y="719"/>
      <point x="-109" y="712" type="curve"/>
      <point x="-89" y="726" type="line"/>
      <point x="-91" y="732"/>
      <point x="-92" y="739"/>
      <point x="-92" y="746" type="curve" smooth="yes"/>
      <point x="-92" y="766"/>
      <point x="-82" y="785"/>
      <point x="-71" y="796" type="curve"/>
      <point x="-69" y="793"/>
      <point x="-66" y="787"/>
      <point x="-66" y="787" type="curve" smooth="yes"/>
      <point x="-66" y="787"/>
      <point x="-63" y="793"/>
      <point x="-65" y="802" type="curve"/>
      <point x="-49" y="815"/>
      <point x="-33" y="822"/>
      <point x="-19" y="826" type="curve" smooth="yes"/>
      <point x="5" y="833"/>
      <point x="26" y="833"/>
      <point x="26" y="833" type="curve"/>
    </contour>
    <contour>
      <point x="-78" y="830"/>
      <point x="-89" y="839"/>
      <point x="-95" y="844" type="curve"/>
      <point x="-93" y="848"/>
      <point x="-86" y="854"/>
      <point x="-73" y="854" type="curve" smooth="yes"/>
      <point x="-61" y="854"/>
      <point x="-46" y="849"/>
      <point x="-26" y="846" type="curve"/>
      <point x="-32" y="844"/>
      <point x="-53" y="836"/>
      <point x="-71" y="819" type="curve"/>
    </contour>
    <contour>
      <point x="111" y="831"/>
      <point x="98" y="855"/>
      <point x="74" y="868" type="curve"/>
      <point x="63" y="840" type="line" smooth="yes"/>
      <point x="61" y="835"/>
      <point x="63" y="830"/>
      <point x="67" y="827" type="curve" smooth="yes"/>
      <point x="77" y="820"/>
      <point x="86" y="814"/>
      <point x="94" y="805" type="curve"/>
      <point x="91" y="783"/>
      <point x="81" y="772"/>
      <point x="69" y="765" type="curve" smooth="yes"/>
      <point x="54" y="756"/>
      <point x="28" y="756"/>
      <point x="17" y="755" type="curve"/>
      <point x="17" y="719" type="line"/>
      <point x="57" y="719"/>
      <point x="69" y="723"/>
      <point x="83" y="732" type="curve" smooth="yes"/>
      <point x="92" y="738"/>
      <point x="99" y="747"/>
      <point x="104" y="759" type="curve" smooth="yes"/>
      <point x="111" y="774"/>
      <point x="114" y="790"/>
      <point x="113" y="805" type="curve" smooth="yes"/>
    </contour>
    <contour>
      <point x="1" y="885" type="move" name="top"/>
    </contour>
    <contour>
      <point x="1" y="692" type="move" name="_top"/>
    </contour>
  </outline>
</glyph>
<glyph name="uni0631" format="1">
  <advance width="299"/>
  <unicode hex="0631"/>
  <outline>
    <contour>
      <point x="234" y="-45"/>
      <point x="242" y="1"/>
      <point x="238" y="45" type="curve" smooth="yes"/>
      <point x="233" y="120"/>
      <point x="195" y="190"/>
      <point x="127" y="227" type="curve"/>
      <point x="95" y="146" type="line" smooth="yes"/>
      <point x="89" y="132"/>
      <point x="95" y="118"/>
      <point x="107" y="109" type="curve" smooth="yes"/>
      <point x="134" y="89"/>
      <point x="160" y="72"/>
      <point x="183" y="46" type="curve"/>
      <point x="176" y="-18"/>
      <point x="147" y="-50"/>
      <point x="111" y="-70" type="curve" smooth="yes"/>
      <point x="67" y="-96"/>
      <point x="-7" y="-98"/>
      <point x="-40" y="-99" type="curve"/>
      <point x="-40" y="-204" type="line"/>
      <point x="5" y="-201"/>
      <point x="24" y="-235"/>
      <point x="31" y="-255" type="curve"/>
      <point x="34" y="-255" type="line"/>
      <point x="34" y="-198" type="line"/>
      <point x="49" y="-198"/>
      <point x="112" y="-193"/>
      <point x="152" y="-165" type="curve" smooth="yes"/>
      <point x="177" y="-148"/>
      <point x="197" y="-124"/>
      <point x="214" y="-87" type="curve" smooth="yes"/>
    </contour>
    <contour>
      <point x="27" y="24" type="move" name="center"/>
    </contour>
    <contour>
      <point x="54" y="-261" type="move" name="bottom"/>
    </contour>
    <contour>
      <point x="123" y="256" type="move" name="top"/>
    </contour>
  </outline>
</glyph>
<glyph name="uni0644" format="1">
  <advance width="563"/>
  <unicode hex="0644"/>
  <outline>
    <contour>
      <point x="467" y="564"/>
      <point x="472" y="569"/>
      <point x="492" y="592" type="curve"/>
      <point x="458" y="618"/>
      <point x="448" y="638"/>
      <point x="429" y="682" type="curve"/>
      <point x="401" y="678"/>
      <point x="388" y="657"/>
      <point x="381" y="637" type="curve" smooth="yes"/>
      <point x="371" y="607"/>
      <point x="373" y="581"/>
      <point x="373" y="581" type="curve"/>
      <point x="388" y="567" type="line"/>
      <point x="404" y="506"/>
      <point x="416" y="417"/>
      <point x="424" y="339" type="curve" smooth="yes"/>
      <point x="432" y="258"/>
      <point x="437" y="200"/>
      <point x="446" y="41" type="curve"/>
      <point x="423" y="10"/>
      <point x="375" y="-20"/>
      <point x="289" y="-20" type="curve" smooth="yes"/>
      <point x="231" y="-20"/>
      <point x="190" y="-6"/>
      <point x="163" y="13" type="curve" smooth="yes"/>
      <point x="114" y="47"/>
      <point x="109" y="98"/>
      <point x="109" y="118" type="curve" smooth="yes"/>
      <point x="109" y="159"/>
      <point x="129" y="198"/>
      <point x="143" y="215" type="curve"/>
      <point x="127" y="231" type="line"/>
      <point x="107" y="207"/>
      <point x="96" y="185"/>
      <point x="87" y="157" type="curve" smooth="yes"/>
      <point x="72" y="110"/>
      <point x="70" y="74"/>
      <point x="70" y="55" type="curve" smooth="yes"/>
      <point x="70" y="14"/>
      <point x="80" y="-44"/>
      <point x="126" y="-87" type="curve" smooth="yes"/>
      <point x="158" y="-117"/>
      <point x="205" y="-138"/>
      <point x="275" y="-138" type="curve" smooth="yes"/>
      <point x="336" y="-138"/>
      <point x="393" y="-122"/>
      <point x="435" y="-86" type="curve" smooth="yes"/>
      <point x="480" y="-47"/>
      <point x="507" y="14"/>
      <point x="503" y="73" type="curve" smooth="yes"/>
      <point x="482" y="376"/>
      <point x="478" y="433"/>
      <point x="470" y="531" type="curve" smooth="yes"/>
    </contour>
    <contour>
      <point x="381" y="698" type="move" name="top"/>
    </contour>
    <contour>
      <point x="275" y="-164" type="move" name="bottom"/>
    </contour>
  </outline>
</glyph>
<glyph name="uni0659" format="1">
  <advance width="0"/>
  <unicode hex="0659"/>
  <outline>
    <contour>
      <point x="-94" y="707" type="line"/>
      <point x="-89" y="700" type="line"/>
      <point x="62" y="700" type="line"/>
      <point x="95" y="741" type="line"/>
      <point x="-56" y="741" type="line"/>
    </contour>
    <contour>
      <point x="1" y="741" type="move" name="top"/>
    </contour>
    <contour>
      <point x="1" y="680" type="move" name="_top"/>
    </contour>
  </outline>
</glyph>
<glyph name="uni065C" format="1">
  <advance width="0"/>
  <unicode hex="065C"/>
  <outline>
    <contour>
      <point x="26" y="-286"/>
      <point x="47" y="-265"/>
      <point x="47" y="-240" type="curve" smooth="yes"/>
      <point x="47" y="-215"/>
      <point x="26" y="-194"/>
      <point x="0" y="-194" type="curve" smooth="yes"/>
      <point x="-25" y="-194"/>
      <point x="-46" y="-215"/>
      <point x="-46" y="-240" type="curve" smooth="yes"/>
      <point x="-46" y="-265"/>
      <point x="-25" y="-286"/>
      <point x="0" y="-286" type="curve" smooth="yes"/>
    </contour>
    <contour>
      <point x="1" y="-174" type="move" name="_bottom"/>
    </contour>
    <contour>
      <point x="1" y="-286" type="move" name="bottom"/>
    </contour>
  </outline>
</glyph>
<glyph name="uni066D" format="1">
  <advance width="357"/>
  <unicode hex="066D"/>
  <outline>
    <contour>
      <point x="259" y="508"/>
      <point x="236" y="516"/>
      <point x="219" y="522" type="curve"/>
      <point x="219" y="524"/>
      <point x="219" y="525"/>
      <point x="219" y="527" type="curve" smooth="yes"/>
      <point x="219" y="529"/>
      <point x="219" y="531"/>
      <point x="219" y="532" type="curve"/>
      <point x="238" y="539"/>
      <point x="261" y="547"/>
      <point x="280" y="551" type="curve" smooth="yes"/>
      <point x="298" y="556"/>
      <point x="311" y="565"/>
      <point x="315" y="576" type="curve" smooth="yes"/>
      <point x="318" y="582"/>
      <point x="319" y="592"/>
      <point x="312" y="605" type="curve" smooth="yes"/>
      <point x="306" y="615"/>
      <point x="297" y="621"/>
      <point x="286" y="621" type="curve" smooth="yes"/>
      <point x="272" y="622"/>
      <point x="258" y="614"/>
      <point x="249" y="602" type="curve"/>
      <point x="235" y="587"/>
      <point x="217" y="572"/>
      <point x="203" y="560" type="curve"/>
      <point x="200" y="562"/>
      <point x="197" y="563"/>
      <point x="194" y="565" type="curve"/>
      <point x="198" y="585"/>
      <point x="202" y="609"/>
      <point x="208" y="627" type="curve" smooth="yes"/>
      <point x="213" y="643"/>
      <point x="213" y="659"/>
      <point x="206" y="669" type="curve" smooth="yes"/>
      <point x="200" y="677"/>
      <point x="190" y="681"/>
      <point x="178" y="681" type="curve" smooth="yes"/>
      <point x="162" y="681"/>
      <point x="154" y="674"/>
      <point x="151" y="668" type="curve" smooth="yes"/>
      <point x="144" y="658"/>
      <point x="143" y="643"/>
      <point x="148" y="627" type="curve" smooth="yes"/>
      <point x="155" y="607"/>
      <point x="159" y="583"/>
      <point x="162" y="564" type="curve"/>
      <point x="159" y="563"/>
      <point x="156" y="561"/>
      <point x="154" y="560" type="curve"/>
      <point x="138" y="573"/>
      <point x="119" y="589"/>
      <point x="106" y="603" type="curve" smooth="yes"/>
      <point x="95" y="616"/>
      <point x="82" y="623"/>
      <point x="70" y="622" type="curve" smooth="yes"/>
      <point x="63" y="621"/>
      <point x="53" y="618"/>
      <point x="45" y="604" type="curve" smooth="yes"/>
      <point x="38" y="590"/>
      <point x="40" y="580"/>
      <point x="43" y="573" type="curve" smooth="yes"/>
      <point x="48" y="562"/>
      <point x="61" y="554"/>
      <point x="77" y="551" type="curve"/>
      <point x="98" y="547"/>
      <point x="120" y="539"/>
      <point x="138" y="532" type="curve"/>
      <point x="138" y="530"/>
      <point x="138" y="529"/>
      <point x="138" y="527" type="curve" smooth="yes"/>
      <point x="138" y="525"/>
      <point x="138" y="523"/>
      <point x="138" y="522" type="curve"/>
      <point x="112" y="512"/>
      <point x="93" y="506"/>
      <point x="77" y="503" type="curve"/>
      <point x="60" y="499"/>
      <point x="47" y="490"/>
      <point x="42" y="479" type="curve" smooth="yes"/>
      <point x="38" y="471"/>
      <point x="40" y="460"/>
      <point x="45" y="450" type="curve" smooth="yes"/>
      <point x="54" y="436"/>
      <point x="64" y="433"/>
      <point x="71" y="432" type="curve" smooth="yes"/>
      <point x="72" y="432"/>
      <point x="73" y="432"/>
      <point x="73" y="432" type="curve" smooth="yes"/>
      <point x="85" y="432"/>
      <point x="97" y="439"/>
      <point x="107" y="452" type="curve"/>
      <point x="119" y="464"/>
      <point x="135" y="479"/>
      <point x="154" y="494" type="curve"/>
      <point x="157" y="492"/>
      <point x="159" y="491"/>
      <point x="162" y="489" type="curve"/>
      <point x="159" y="467"/>
      <point x="154" y="445"/>
      <point x="148" y="427" type="curve" smooth="yes"/>
      <point x="143" y="410"/>
      <point x="145" y="395"/>
      <point x="152" y="385" type="curve" smooth="yes"/>
      <point x="158" y="377"/>
      <point x="167" y="373"/>
      <point x="179" y="373" type="curve" smooth="yes"/>
      <point x="191" y="373"/>
      <point x="200" y="378"/>
      <point x="206" y="387" type="curve" smooth="yes"/>
      <point x="214" y="399"/>
      <point x="214" y="415"/>
      <point x="208" y="429" type="curve"/>
      <point x="202" y="448"/>
      <point x="197" y="471"/>
      <point x="194" y="489" type="curve"/>
      <point x="198" y="491"/>
      <point x="201" y="492"/>
      <point x="203" y="495" type="curve"/>
      <point x="219" y="481"/>
      <point x="237" y="465"/>
      <point x="250" y="452" type="curve" smooth="yes"/>
      <point x="261" y="440"/>
      <point x="274" y="433"/>
      <point x="286" y="433" type="curve" smooth="yes"/>
      <point x="287" y="433"/>
      <point x="288" y="433"/>
      <point x="289" y="434" type="curve" smooth="yes"/>
      <point x="299" y="435"/>
      <point x="307" y="441"/>
      <point x="313" y="451" type="curve" smooth="yes"/>
      <point x="318" y="461"/>
      <point x="319" y="472"/>
      <point x="314" y="482" type="curve" smooth="yes"/>
      <point x="307" y="494"/>
      <point x="294" y="502"/>
      <point x="279" y="504" type="curve"/>
    </contour>
  </outline>
</glyph>
<glyph name="uni066E" format="1">
  <advance width="839"/>
  <unicode hex="066E"/>
  <outline>
    <contour>
      <point x="778" y="204"/>
      <point x="771" y="251"/>
      <point x="748" y="289" type="curve" smooth="yes"/>
      <point x="735" y="310"/>
      <point x="717" y="330"/>
      <point x="692" y="346" type="curve"/>
      <point x="664" y="240" type="line"/>
      <point x="664" y="240"/>
      <point x="729" y="208"/>
      <point x="744" y="138" type="curve"/>
      <point x="713" y="124"/>
      <point x="669" y="110"/>
      <point x="609" y="100" type="curve" smooth="yes"/>
      <point x="553" y="91"/>
      <point x="480" y="85"/>
      <point x="401" y="85" type="curve" smooth="yes"/>
      <point x="304" y="85"/>
      <point x="245" y="94"/>
      <point x="202" y="110" type="curve" smooth="yes"/>
      <point x="140" y="134"/>
      <point x="118" y="173"/>
      <point x="118" y="217" type="curve" smooth="yes"/>
      <point x="118" y="256"/>
      <point x="135" y="293"/>
      <point x="142" y="306" type="curve"/>
      <point x="126" y="321" type="line"/>
      <point x="98" y="294"/>
      <point x="70" y="218"/>
      <point x="70" y="161" type="curve" smooth="yes"/>
      <point x="70" y="119"/>
      <point x="86" y="67"/>
      <point x="139" y="29" type="curve" smooth="yes"/>
      <point x="184" y="-3"/>
      <point x="253" y="-25"/>
      <point x="361" y="-25" type="curve" smooth="yes"/>
      <point x="460" y="-25"/>
      <point x="554" y="-6"/>
      <point x="612" y="9" type="curve" smooth="yes"/>
      <point x="750" y="45"/>
      <point x="771" y="83"/>
      <point x="771" y="83" type="curve" smooth="yes"/>
      <point x="771" y="83"/>
      <point x="780" y="123"/>
      <point x="779" y="169" type="curve" smooth="yes"/>
    </contour>
    <contour>
      <point x="420" y="219" type="move" name="top"/>
    </contour>
    <contour>
      <point x="432" y="-64" type="move" name="bottom"/>
    </contour>
  </outline>
</glyph>
<glyph name="uni06BA" format="1">
  <advance width="568"/>
  <unicode hex="06BA"/>
  <outline>
    <contour>
      <point x="421" y="200" type="line"/>
      <point x="383" y="102" type="line"/>
      <point x="416" y="50"/>
      <point x="461" y="-13"/>
      <point x="461" y="-13" type="curve"/>
      <point x="448" y="-47"/>
      <point x="402" y="-100"/>
      <point x="289" y="-100" type="curve" smooth="yes"/>
      <point x="231" y="-100"/>
      <point x="190" y="-86"/>
      <point x="163" y="-67" type="curve" smooth="yes"/>
      <point x="114" y="-33"/>
      <point x="109" y="18"/>
      <point x="109" y="38" type="curve" smooth="yes"/>
      <point x="109" y="79"/>
      <point x="129" y="118"/>
      <point x="143" y="135" type="curve"/>
      <point x="127" y="151" type="line"/>
      <point x="107" y="128"/>
      <point x="94" y="101"/>
      <point x="86" y="77" type="curve" smooth="yes"/>
      <point x="71" y="32"/>
      <point x="70" y="-17"/>
      <point x="70" y="-28" type="curve" smooth="yes"/>
      <point x="70" y="-64"/>
      <point x="80" y="-124"/>
      <point x="126" y="-167" type="curve" smooth="yes"/>
      <point x="157" y="-196"/>
      <point x="205" y="-218"/>
      <point x="276" y="-218" type="curve" smooth="yes"/>
      <point x="340" y="-218"/>
      <point x="395" y="-200"/>
      <point x="435" y="-166" type="curve" smooth="yes"/>
      <point x="475" y="-132"/>
      <point x="503" y="-78"/>
      <point x="503" y="-15" type="curve" smooth="yes"/>
      <point x="503" y="44"/>
      <point x="479" y="99"/>
      <point x="479" y="99" type="curve"/>
      <point x="508" y="99" type="line"/>
    </contour>
    <contour>
      <point x="260" y="-2" type="move" name="top"/>
    </contour>
    <contour>
      <point x="276" y="-248" type="move" name="bottom"/>
    </contour>
  </outline>
</glyph>
<glyph name="uni08E7" format="1">
  <advance width="0"/>
  <unicode hex="08E7"/>
  <outline>
    <contour>
      <point x="-65" y="726"/>
      <point x="-51" y="714"/>
      <point x="-26" y="701" type="curve"/>
      <point x="-20" y="717" type="line"/>
      <point x="-35" y="726"/>
      <point x="-41" y="733"/>
      <point x="-41" y="741" type="curve" smooth="yes"/>
      <point x="-41" y="751"/>
      <point x="-31" y="758"/>
      <point x="17" y="791" type="curve" smooth="yes"/>
      <point x="33" y="802"/>
      <point x="63" y="823"/>
      <point x="63" y="860" type="curve" smooth="yes"/>
      <point x="63" y="881"/>
      <point x="53" y="897"/>
      <point x="37" y="908" type="curve"/>
      <point x="52" y="923"/>
      <point x="63" y="941"/>
      <point x="63" y="963" type="curve" smooth="yes"/>
      <point x="63" y="989"/>
      <point x="47" y="1008"/>
      <point x="25" y="1017" type="curve"/>
      <point x="18" y="1001" type="line"/>
      <point x="31" y="991"/>
      <point x="37" y="983"/>
      <point x="37" y="975" type="curve" smooth="yes"/>
      <point x="37" y="959"/>
      <point x="10" y="947"/>
      <point x="-17" y="929" type="curve" smooth="yes"/>
      <point x="-43" y="912"/>
      <point x="-65" y="892"/>
      <point x="-65" y="857" type="curve" smooth="yes"/>
      <point x="-65" y="837"/>
      <point x="-58" y="823"/>
      <point x="-38" y="810" type="curve"/>
      <point x="-54" y="797"/>
      <point x="-65" y="781"/>
      <point x="-65" y="755" type="curve" smooth="yes"/>
    </contour>
    <contour>
      <point x="-49" y="856"/>
      <point x="7" y="892"/>
      <point x="21" y="900" type="curve" smooth="yes"/>
      <point x="27" y="903" type="line"/>
      <point x="40" y="893"/>
      <point x="45" y="885"/>
      <point x="45" y="877" type="curve" smooth="yes"/>
      <point x="45" y="854"/>
      <point x="2" y="837"/>
      <point x="-20" y="821" type="curve" smooth="yes"/>
      <point x="-28" y="815" type="line"/>
      <point x="-44" y="824"/>
      <point x="-49" y="833"/>
      <point x="-49" y="838" type="curve" smooth="yes"/>
    </contour>
    <contour>
      <point x="0" y="1017" type="move" name="top"/>
    </contour>
    <contour>
      <point x="0" y="680" type="move" name="_top"/>
    </contour>
  </outline>
</glyph>
<glyph name="uni08F2" format="1">
  <advance width="0"/>
  <unicode hex="08F2"/>
  <outline>
    <contour>
      <point x="-114" y="-409" type="line"/>
      <point x="-107" y="-414" type="line"/>
      <point x="33" y="-359" type="line"/>
      <point x="59" y="-309" type="line"/>
      <point x="-86" y="-366" type="line"/>
    </contour>
    <contour>
      <point x="-58" y="-309" type="line"/>
      <point x="-51" y="-314" type="line"/>
      <point x="89" y="-259" type="line"/>
      <point x="115" y="-209" type="line"/>
      <point x="-30" y="-266" type="line"/>
    </contour>
    <contour>
      <point x="-3" y="-187" type="move" name="_bottom"/>
    </contour>
    <contour>
      <point x="-3" y="-414" type="move" name="bottom"/>
    </contour>
  </outline>
</glyph>
<glyph name="uniFBB4" format="1">
  <advance width="0"/>
  <unicode hex="FBB4"/>
  <outline>
    <contour>
      <point x="-86" y="742"/>
      <point x="-68" y="725"/>
      <point x="-43" y="700" type="curve"/>
      <point x="-23" y="720"/>
      <point x="-12" y="733"/>
      <point x="-2" y="746" type="curve"/>
      <point x="14" y="734"/>
      <point x="30" y="720"/>
      <point x="49" y="700" type="curve"/>
      <point x="77" y="727"/>
      <point x="89" y="743"/>
      <point x="102" y="761" type="curve"/>
      <point x="90" y="780"/>
      <point x="62" y="804"/>
      <point x="38" y="816" type="curve"/>
      <point x="30" y="804"/>
      <point x="15" y="787"/>
      <point x="1" y="772" type="curve"/>
      <point x="-13" y="788"/>
      <point x="-35" y="806"/>
      <point x="-54" y="816" type="curve"/>
      <point x="-67" y="799"/>
      <point x="-92" y="771"/>
      <point x="-107" y="754" type="curve"/>
    </contour>
    <contour>
      <point x="-3" y="836" type="move" name="top"/>
    </contour>
    <contour>
      <point x="-3" y="680" type="move" name="_top"/>
    </contour>
  </outline>
</glyph>
<glyph name="uniFBB6" format="1">
  <advance width="0"/>
  <unicode hex="FBB6"/>
  <outline>
    <contour>
      <point x="-85" y="742"/>
      <point x="-66" y="725"/>
      <point x="-42" y="700" type="curve"/>
      <point x="-22" y="720"/>
      <point x="-10" y="733"/>
      <point x="0" y="746" type="curve"/>
      <point x="16" y="735"/>
      <point x="32" y="720"/>
      <point x="51" y="700" type="curve"/>
      <point x="79" y="727"/>
      <point x="91" y="743"/>
      <point x="104" y="761" type="curve"/>
      <point x="92" y="780"/>
      <point x="63" y="804"/>
      <point x="40" y="816" type="curve"/>
      <point x="3" y="772" type="line"/>
      <point x="-11" y="788"/>
      <point x="-34" y="806"/>
      <point x="-53" y="816" type="curve"/>
      <point x="-66" y="800"/>
      <point x="-91" y="771"/>
      <point x="-106" y="754" type="curve"/>
    </contour>
    <contour>
      <point x="-41" y="849"/>
      <point x="-22" y="833"/>
      <point x="2" y="808" type="curve"/>
      <point x="30" y="835"/>
      <point x="42" y="851"/>
      <point x="55" y="869" type="curve"/>
      <point x="43" y="887"/>
      <point x="14" y="912"/>
      <point x="-9" y="924" type="curve"/>
      <point x="-22" y="907"/>
      <point x="-47" y="878"/>
      <point x="-62" y="862" type="curve"/>
    </contour>
    <contour>
      <point x="-1" y="944" type="move" name="top"/>
    </contour>
    <contour>
      <point x="-1" y="680" type="move" name="_top"/>
    </contour>
  </outline>
</glyph>
<glyph name="uniFC1F" format="1">
  <advance width="838"/>
  <unicode hex="FC1F"/>
  <outline>
    <contour>
      <point x="777" y="206"/>
      <point x="767" y="249"/>
      <point x="748" y="267" type="curve"/>
      <point x="695" y="198" type="line"/>
      <point x="704" y="171"/>
      <point x="713" y="139"/>
      <point x="712" y="115" type="curve"/>
      <point x="712" y="115"/>
      <point x="668" y="110"/>
      <point x="640" y="125" type="curve" smooth="yes"/>
      <point x="604" y="145"/>
      <point x="599" y="185"/>
      <point x="598" y="207" type="curve"/>
      <point x="583" y="214" type="line"/>
      <point x="581" y="190"/>
      <point x="575" y="167"/>
      <point x="564" y="149" type="curve" smooth="yes"/>
      <point x="550" y="126"/>
      <point x="527" y="111"/>
      <point x="497" y="111" type="curve" smooth="yes"/>
      <point x="472" y="111"/>
      <point x="456" y="115"/>
      <point x="442" y="125" type="curve"/>
      <point x="428" y="136"/>
      <point x="417" y="153"/>
      <point x="401" y="179" type="curve"/>
      <point x="388" y="202"/>
      <point x="372" y="221"/>
      <point x="340" y="221" type="curve" smooth="yes"/>
      <point x="307" y="221"/>
      <point x="274" y="195"/>
      <point x="249" y="161" type="curve" smooth="yes"/>
      <point x="233" y="140"/>
      <point x="220" y="116"/>
      <point x="213" y="94" type="curve" smooth="yes"/>
      <point x="207" y="73"/>
      <point x="204" y="52"/>
      <point x="205" y="28" type="curve"/>
      <point x="166" y="17"/>
      <point x="138" y="-11"/>
      <point x="118" y="-42" type="curve" smooth="yes"/>
      <point x="83" y="-96"/>
      <point x="74" y="-151"/>
      <point x="73" y="-158" type="curve"/>
      <point x="66" y="-205"/>
      <point x="76" y="-257"/>
      <point x="88" y="-313" type="curve" smooth="yes"/>
      <point x="103" y="-380"/>
      <point x="121" y="-453"/>
      <point x="116" y="-531" type="curve"/>
      <point x="133" y="-523" type="line"/>
      <point x="160" y="-469"/>
      <point x="163" y="-435"/>
      <point x="166" y="-407" type="curve" smooth="yes"/>
      <point x="170" y="-364"/>
      <point x="164" y="-319"/>
      <point x="156" y="-277" type="curve" smooth="yes"/>
      <point x="143" y="-213"/>
      <point x="125" y="-155"/>
      <point x="130" y="-114" type="curve"/>
      <point x="147" y="-83"/>
      <point x="190" y="-63"/>
      <point x="237" y="-63" type="curve" smooth="yes"/>
      <point x="278" y="-63"/>
      <point x="320" y="-79"/>
      <point x="349" y="-101" type="curve"/>
      <point x="366" y="8" type="line"/>
      <point x="350" y="40"/>
      <point x="316" y="65"/>
      <point x="271" y="85" type="curve"/>
      <point x="281" y="103"/>
      <point x="301" y="126"/>
      <point x="330" y="126" type="curve" smooth="yes"/>
      <point x="378" y="126"/>
      <point x="394" y="93"/>
      <point x="412" y="61" type="curve" smooth="yes"/>
      <point x="429" y="32"/>
      <point x="455" y="5"/>
      <point x="505" y="5" type="curve" smooth="yes"/>
      <point x="528" y="5"/>
      <point x="549" y="13"/>
      <point x="564" y="27" type="curve" smooth="yes"/>
      <point x="577" y="40"/>
      <point x="587" y="56"/>
      <point x="590" y="75" type="curve"/>
      <point x="597" y="60"/>
      <point x="607" y="41"/>
      <point x="626" y="26" type="curve"/>
      <point x="641" y="15"/>
      <point x="663" y="6"/>
      <point x="694" y="6" type="curve" smooth="yes"/>
      <point x="708" y="6"/>
      <point x="725" y="25"/>
      <point x="740" y="47" type="curve" smooth="yes"/>
      <point x="756" y="69"/>
      <point x="769" y="94"/>
      <point x="771" y="101" type="curve" smooth="yes"/>
      <point x="776" y="119"/>
      <point x="779" y="141"/>
      <point x="778" y="164" type="curve" smooth="yes"/>
    </contour>
    <contour>
      <point x="419" y="0" type="move" name="caret_1"/>
    </contour>
    <contour>
      <point x="581" y="-35" type="move" name="bottom_1"/>
    </contour>
    <contour>
      <point x="583" y="254" type="move" name="top_1"/>
    </contour>
    <contour>
      <point x="281" y="264" type="move" name="top_2"/>
    </contour>
    <contour>
      <point x="125" y="-558" type="move" name="bottom_2"/>
    </contour>
  </outline>
</glyph>
<glyph name="uniFC3B" format="1">
  <advance width="864"/>
  <unicode hex="FC3B"/>
  <outline>
    <contour>
      <point x="854" y="657" type="line"/>
      <point x="808" y="628"/>
      <point x="789" y="617"/>
      <point x="713" y="580" type="curve" smooth="yes"/>
      <point x="672" y="560"/>
      <point x="627" y="538"/>
      <point x="584" y="514" type="curve" smooth="yes"/>
      <point x="559" y="499"/>
      <point x="490" y="461"/>
      <point x="465" y="427" type="curve"/>
      <point x="458" y="488"/>
      <point x="450" y="554"/>
      <point x="442" y="614" type="curve"/>
      <point x="378" y="540" type="line"/>
      <point x="402" y="341"/>
      <point x="427" y="142"/>
      <point x="451" y="-57" type="curve"/>
      <point x="439" y="-73"/>
      <point x="412" y="-96"/>
      <point x="374" y="-108" type="curve" smooth="yes"/>
      <point x="351" y="-115"/>
      <point x="322" y="-120"/>
      <point x="288" y="-120" type="curve" smooth="yes"/>
      <point x="232" y="-120"/>
      <point x="190" y="-106"/>
      <point x="163" y="-87" type="curve" smooth="yes"/>
      <point x="116" y="-54"/>
      <point x="110" y="-6"/>
      <point x="110" y="17" type="curve" smooth="yes"/>
      <point x="110" y="57"/>
      <point x="128" y="95"/>
      <point x="143" y="115" type="curve"/>
      <point x="127" y="131" type="line"/>
      <point x="107" y="108"/>
      <point x="96" y="85"/>
      <point x="87" y="57" type="curve" smooth="yes"/>
      <point x="72" y="10"/>
      <point x="70" y="-26"/>
      <point x="70" y="-44" type="curve" smooth="yes"/>
      <point x="70" y="-83"/>
      <point x="80" y="-144"/>
      <point x="126" y="-187" type="curve" smooth="yes"/>
      <point x="158" y="-217"/>
      <point x="207" y="-238"/>
      <point x="276" y="-238" type="curve" smooth="yes"/>
      <point x="337" y="-238"/>
      <point x="395" y="-222"/>
      <point x="438" y="-185" type="curve" smooth="yes"/>
      <point x="477" y="-152"/>
      <point x="503" y="-102"/>
      <point x="503" y="-32" type="curve" smooth="yes"/>
      <point x="503" y="-27"/>
      <point x="503" y="-4"/>
      <point x="503" y="19" type="curve"/>
      <point x="514" y="8"/>
      <point x="539" y="0"/>
      <point x="577" y="0" type="curve"/>
      <point x="632" y="2"/>
      <point x="679" y="21"/>
      <point x="701" y="55" type="curve" smooth="yes"/>
      <point x="721" y="84"/>
      <point x="730" y="123"/>
      <point x="730" y="170" type="curve" smooth="yes"/>
      <point x="730" y="220"/>
      <point x="704" y="275"/>
      <point x="665" y="322" type="curve" smooth="yes"/>
      <point x="635" y="358"/>
      <point x="598" y="389"/>
      <point x="559" y="409" type="curve"/>
      <point x="573" y="419"/>
      <point x="635" y="449"/>
      <point x="693" y="475" type="curve" smooth="yes"/>
      <point x="747" y="500"/>
      <point x="802" y="526"/>
      <point x="829" y="544" type="curve"/>
    </contour>
    <contour>
      <point x="653" y="124"/>
      <point x="623" y="106"/>
      <point x="564" y="106" type="curve"/>
      <point x="544" y="106"/>
      <point x="530" y="116"/>
      <point x="519" y="129" type="curve" smooth="yes"/>
      <point x="503" y="150"/>
      <point x="494" y="186"/>
      <point x="487" y="244" type="curve" smooth="yes"/>
      <point x="485" y="261"/>
      <point x="481" y="296"/>
      <point x="476" y="340" type="curve"/>
      <point x="520" y="325"/>
      <point x="563" y="299"/>
      <point x="597" y="267" type="curve" smooth="yes"/>
      <point x="633" y="234"/>
      <point x="660" y="194"/>
      <point x="672" y="151" type="curve"/>
    </contour>
    <contour>
      <point x="427" y="0" type="move" name="caret_1"/>
    </contour>
    <contour>
      <point x="635" y="-34" type="move" name="bottom_1"/>
    </contour>
    <contour>
      <point x="621" y="590" type="move" name="top_1"/>
    </contour>
    <contour>
      <point x="322" y="589" type="move" name="top_2"/>
    </contour>
    <contour>
      <point x="276" y="-268" type="move" name="bottom_2"/>
    </contour>
  </outline>
</glyph>
<glyph name="uniFCFB" format="1">
  <advance width="984"/>
  <unicode hex="FCFB"/>
  <outline>
    <contour>
      <point x="923" y="206"/>
      <point x="913" y="249"/>
      <point x="894" y="267" type="curve"/>
      <point x="841" y="198" type="line"/>
      <point x="850" y="171"/>
      <point x="859" y="139"/>
      <point x="858" y="115" type="curve"/>
      <point x="858" y="115"/>
      <point x="814" y="110"/>
      <point x="786" y="125" type="curve" smooth="yes"/>
      <point x="750" y="145"/>
      <point x="745" y="185"/>
      <point x="744" y="207" type="curve"/>
      <point x="729" y="214" type="line"/>
      <point x="727" y="190"/>
      <point x="721" y="167"/>
      <point x="710" y="149" type="curve" smooth="yes"/>
      <point x="696" y="126"/>
      <point x="673" y="111"/>
      <point x="643" y="111" type="curve" smooth="yes"/>
      <point x="618" y="111"/>
      <point x="602" y="115"/>
      <point x="588" y="125" type="curve" smooth="yes"/>
      <point x="574" y="136"/>
      <point x="563" y="153"/>
      <point x="547" y="179" type="curve"/>
      <point x="534" y="202"/>
      <point x="518" y="221"/>
      <point x="486" y="221" type="curve" smooth="yes"/>
      <point x="457" y="221"/>
      <point x="426" y="200"/>
      <point x="401" y="169" type="curve" smooth="yes"/>
      <point x="381" y="145"/>
      <point x="365" y="114"/>
      <point x="355" y="82" type="curve" smooth="yes"/>
      <point x="349" y="63"/>
      <point x="346" y="39"/>
      <point x="355" y="19" type="curve" smooth="yes"/>
      <point x="362" y="3"/>
      <point x="376" y="-11"/>
      <point x="403" y="-15" type="curve" smooth="yes"/>
      <point x="466" y="-25"/>
      <point x="479" y="-29"/>
      <point x="481" y="-41" type="curve"/>
      <point x="457" y="-62"/>
      <point x="429" y="-78"/>
      <point x="396" y="-89" type="curve" smooth="yes"/>
      <point x="362" y="-100"/>
      <point x="324" y="-105"/>
      <point x="281" y="-105" type="curve" smooth="yes"/>
      <point x="229" y="-105"/>
      <point x="190" y="-90"/>
      <point x="164" y="-72" type="curve" smooth="yes"/>
      <point x="124" y="-44"/>
      <point x="109" y="-7"/>
      <point x="110" y="34" type="curve" smooth="yes"/>
      <point x="111" y="82"/>
      <point x="134" y="124"/>
      <point x="143" y="134" type="curve"/>
      <point x="127" y="150" type="line"/>
      <point x="105" y="126"/>
      <point x="94" y="98"/>
      <point x="87" y="76" type="curve" smooth="yes"/>
      <point x="70" y="24"/>
      <point x="70" y="-18"/>
      <point x="70" y="-20" type="curve" smooth="yes"/>
      <point x="70" y="-58"/>
      <point x="79" y="-117"/>
      <point x="121" y="-163" type="curve" smooth="yes"/>
      <point x="150" y="-195"/>
      <point x="204" y="-218"/>
      <point x="278" y="-218" type="curve" smooth="yes"/>
      <point x="325" y="-218"/>
      <point x="381" y="-201"/>
      <point x="427" y="-175" type="curve" smooth="yes"/>
      <point x="472" y="-151"/>
      <point x="507" y="-120"/>
      <point x="517" y="-89" type="curve" smooth="yes"/>
      <point x="521" y="-76"/>
      <point x="525" y="-57"/>
      <point x="531" y="-25" type="curve" smooth="yes"/>
      <point x="543" y="34"/>
      <point x="509" y="46"/>
      <point x="473" y="54" type="curve" smooth="yes"/>
      <point x="449" y="59"/>
      <point x="425" y="62"/>
      <point x="413" y="76" type="curve"/>
      <point x="420" y="95"/>
      <point x="443" y="126"/>
      <point x="476" y="126" type="curve" smooth="yes"/>
      <point x="524" y="126"/>
      <point x="540" y="93"/>
      <point x="558" y="61" type="curve" smooth="yes"/>
      <point x="575" y="32"/>
      <point x="601" y="5"/>
      <point x="651" y="5" type="curve"/>
      <point x="674" y="5"/>
      <point x="695" y="13"/>
      <point x="710" y="27" type="curve" smooth="yes"/>
      <point x="723" y="40"/>
      <point x="733" y="56"/>
      <point x="736" y="75" type="curve"/>
      <point x="743" y="60"/>
      <point x="753" y="41"/>
      <point x="772" y="26" type="curve"/>
      <point x="787" y="15"/>
      <point x="809" y="6"/>
      <point x="840" y="6" type="curve" smooth="yes"/>
      <point x="854" y="6"/>
      <point x="871" y="25"/>
      <point x="886" y="47" type="curve" smooth="yes"/>
      <point x="902" y="69"/>
      <point x="915" y="94"/>
      <point x="917" y="101" type="curve" smooth="yes"/>
      <point x="922" y="119"/>
      <point x="925" y="141"/>
      <point x="924" y="164" type="curve" smooth="yes"/>
    </contour>
    <contour>
      <point x="487" y="0" type="move" name="caret_1"/>
    </contour>
    <contour>
      <point x="735" y="-34" type="move" name="bottom_1"/>
    </contour>
    <contour>
      <point x="729" y="254" type="move" name="top_1"/>
    </contour>
    <contour>
      <point x="269" y="138" type="move" name="top_2"/>
    </contour>
    <contour>
      <point x="288" y="-248" type="move" name="bottom_2"/>
    </contour>
  </outline>
</glyph>
<glyph name="uniFEDA" format="1">
  <advance width="953"/>
  <unicode hex="FEDA"/>
  <outline>
    <contour>
      <point x="894" y="106"/>
      <point x="872" y="113"/>
      <point x="856" y="134" type="curve" smooth="yes"/>
      <point x="841" y="155"/>
      <point x="831" y="190"/>
      <point x="824" y="244" type="curve" smooth="yes"/>
      <point x="817" y="294"/>
      <point x="792" y="508"/>
      <point x="771" y="681" type="curve"/>
      <point x="708" y="607" type="line"/>
      <point x="713" y="563"/>
      <point x="756" y="203"/>
      <point x="761" y="160" type="curve"/>
      <point x="712" y="129"/>
      <point x="606" y="85"/>
      <point x="393" y="85" type="curve" smooth="yes"/>
      <point x="306" y="85"/>
      <point x="244" y="94"/>
      <point x="201" y="110" type="curve" smooth="yes"/>
      <point x="140" y="134"/>
      <point x="118" y="172"/>
      <point x="118" y="220" type="curve" smooth="yes"/>
      <point x="118" y="255"/>
      <point x="134" y="293"/>
      <point x="142" y="306" type="curve"/>
      <point x="126" y="321" type="line"/>
      <point x="97" y="295"/>
      <point x="70" y="218"/>
      <point x="70" y="161" type="curve" smooth="yes"/>
      <point x="70" y="126"/>
      <point x="81" y="84"/>
      <point x="114" y="49" type="curve" smooth="yes"/>
      <point x="154" y="8"/>
      <point x="225" y="-23"/>
      <point x="350" y="-23" type="curve" smooth="yes"/>
      <point x="581" y="-23"/>
      <point x="704" y="27"/>
      <point x="777" y="90" type="curve"/>
      <point x="793" y="44"/>
      <point x="824" y="0"/>
      <point x="884" y="0" type="curve" smooth="yes"/>
      <point x="953" y="0" type="line"/>
      <point x="953" y="106" type="line"/>
      <point x="925" y="106" type="line" smooth="yes"/>
    </contour>
    <contour>
      <point x="496" y="197"/>
      <point x="507" y="217"/>
      <point x="514" y="249" type="curve" smooth="yes"/>
      <point x="517" y="262"/>
      <point x="512" y="280"/>
      <point x="487" y="281" type="curve" smooth="yes"/>
      <point x="449" y="281"/>
      <point x="443" y="293"/>
      <point x="443" y="293" type="curve"/>
      <point x="444" y="313"/>
      <point x="491" y="315"/>
      <point x="491" y="315" type="curve"/>
      <point x="508" y="369" type="line"/>
      <point x="486" y="364"/>
      <point x="460" y="353"/>
      <point x="441" y="339" type="curve" smooth="yes"/>
      <point x="421" y="324"/>
      <point x="407" y="305"/>
      <point x="407" y="282" type="curve" smooth="yes"/>
      <point x="407" y="267"/>
      <point x="412" y="256"/>
      <point x="419" y="248" type="curve" smooth="yes"/>
      <point x="428" y="240"/>
      <point x="440" y="237"/>
      <point x="454" y="237" type="curve" smooth="yes"/>
      <point x="475" y="237"/>
      <point x="477" y="230"/>
      <point x="477" y="230" type="curve"/>
      <point x="460" y="206"/>
      <point x="374" y="203"/>
      <point x="364" y="204" type="curve"/>
      <point x="356" y="188" type="line"/>
      <point x="363" y="185"/>
      <point x="395" y="177"/>
      <point x="409" y="175" type="curve" smooth="yes"/>
      <point x="438" y="171"/>
      <point x="463" y="171"/>
      <point x="482" y="186" type="curve" smooth="yes"/>
    </contour>
    <contour>
      <point x="456" y="387" type="move" name="top"/>
    </contour>
    <contour>
      <point x="426" y="-64" type="move" name="bottom"/>
    </contour>
  </outline>
</glyph>
<glyph name="uniFEDC" format="1">
  <advance width="426"/>
  <unicode hex="FEDC"/>
  <outline>
    <contour>
      <point x="361" y="106"/>
      <point x="342" y="107"/>
      <point x="324" y="114" type="curve" smooth="yes"/>
      <point x="283" y="129"/>
      <point x="258" y="167"/>
      <point x="237" y="200" type="curve" smooth="yes"/>
      <point x="215" y="235"/>
      <point x="196" y="266"/>
      <point x="167" y="306" type="curve" smooth="yes"/>
      <point x="140" y="344"/>
      <point x="110" y="379"/>
      <point x="78" y="404" type="curve"/>
      <point x="114" y="427"/>
      <point x="126" y="434"/>
      <point x="204" y="472" type="curve" smooth="yes"/>
      <point x="288" y="513"/>
      <point x="335" y="538"/>
      <point x="343" y="544" type="curve"/>
      <point x="368" y="657" type="line"/>
      <point x="330" y="631"/>
      <point x="252" y="591"/>
      <point x="233" y="582" type="curve" smooth="yes"/>
      <point x="200" y="566"/>
      <point x="132" y="533"/>
      <point x="99" y="515" type="curve" smooth="yes"/>
      <point x="59" y="493"/>
      <point x="34" y="476"/>
      <point x="24" y="435" type="curve" smooth="yes"/>
      <point x="19" y="417"/>
      <point x="20" y="389"/>
      <point x="20" y="362" type="curve" smooth="yes"/>
      <point x="20" y="308"/>
      <point x="24" y="291"/>
      <point x="70" y="255" type="curve"/>
      <point x="70" y="273" type="line"/>
      <point x="106" y="245"/>
      <point x="149" y="186"/>
      <point x="179" y="137" type="curve"/>
      <point x="158" y="116"/>
      <point x="131" y="106"/>
      <point x="91" y="106" type="curve" smooth="yes"/>
      <point x="-17" y="106" type="line" smooth="yes"/>
      <point x="-46" y="106"/>
      <point x="-70" y="82"/>
      <point x="-70" y="53" type="curve" smooth="yes"/>
      <point x="-70" y="24"/>
      <point x="-46" y="0"/>
      <point x="-17" y="0" type="curve"/>
      <point x="-17" y="0"/>
      <point x="65" y="0"/>
      <point x="91" y="0" type="curve" smooth="yes"/>
      <point x="151" y="0"/>
      <point x="199" y="34"/>
      <point x="224" y="85" type="curve"/>
      <point x="244" y="55"/>
      <point x="285" y="0"/>
      <point x="374" y="0" type="curve" smooth="yes"/>
      <point x="426" y="0" type="line"/>
      <point x="426" y="106" type="line"/>
      <point x="381" y="106" type="line" smooth="yes"/>
    </contour>
    <contour>
      <point x="120" y="589" type="move" name="top"/>
    </contour>
    <contour>
      <point x="68" y="-34" type="move" name="bottom"/>
    </contour>
  </outline>
</glyph>
<glyph name="uniFEEE" format="1">
  <advance width="352"/>
  <unicode hex="FEEE"/>
  <outline>
    <contour>
      <point x="247" y="106" type="line"/>
      <point x="240" y="147"/>
      <point x="226" y="184"/>
      <point x="207" y="210" type="curve" smooth="yes"/>
      <point x="187" y="237"/>
      <point x="161" y="254"/>
      <point x="131" y="254" type="curve" smooth="yes"/>
      <point x="81" y="254"/>
      <point x="51" y="211"/>
      <point x="48" y="180" type="curve" smooth="yes"/>
      <point x="39" y="92" type="line" smooth="yes"/>
      <point x="37" y="76"/>
      <point x="39" y="50"/>
      <point x="57" y="30" type="curve" smooth="yes"/>
      <point x="72" y="13"/>
      <point x="97" y="0"/>
      <point x="139" y="0" type="curve" smooth="yes"/>
      <point x="190" y="0" type="line"/>
      <point x="177" y="-33"/>
      <point x="155" y="-55"/>
      <point x="131" y="-69" type="curve" smooth="yes"/>
      <point x="87" y="-95"/>
      <point x="33" y="-97"/>
      <point x="0" y="-98" type="curve"/>
      <point x="0" y="-203" type="line"/>
      <point x="44" y="-200"/>
      <point x="63" y="-234"/>
      <point x="71" y="-254" type="curve"/>
      <point x="74" y="-254" type="line"/>
      <point x="74" y="-197" type="line"/>
      <point x="88" y="-197"/>
      <point x="131" y="-192"/>
      <point x="172" y="-165" type="curve" smooth="yes"/>
      <point x="211" y="-137"/>
      <point x="247" y="-88"/>
      <point x="252" y="0" type="curve"/>
      <point x="352" y="0" type="line"/>
      <point x="352" y="106" type="line"/>
    </contour>
    <contour>
      <point x="75" y="106"/>
      <point x="74" y="132"/>
      <point x="74" y="132" type="curve" smooth="yes"/>
      <point x="74" y="132"/>
      <point x="91" y="166"/>
      <point x="120" y="166" type="curve" smooth="yes"/>
      <point x="157" y="166"/>
      <point x="170" y="125"/>
      <point x="175" y="106" type="curve"/>
      <point x="108" y="106" type="line" smooth="yes"/>
    </contour>
    <contour>
      <point x="-23" y="-3" type="move" name="center"/>
    </contour>
    <contour>
      <point x="101" y="-279" type="move" name="bottom"/>
    </contour>
    <contour>
      <point x="111" y="284" type="move" name="top"/>
    </contour>
  </outline>
</glyph>
<glyph name="Longdotlessbehar.medi" format="1">
  <advance width="478"/>
  <outline>
    <contour>
      <point x="409" y="106"/>
      <point x="389" y="111"/>
      <point x="376" y="123" type="curve" smooth="yes"/>
      <point x="363" y="134"/>
      <point x="357" y="152"/>
      <point x="359" y="176" type="curve" smooth="yes"/>
      <point x="359" y="176"/>
      <point x="344" y="184"/>
      <point x="344" y="184" type="curve"/>
      <point x="342" y="174"/>
      <point x="338" y="146"/>
      <point x="317" y="127" type="curve" smooth="yes"/>
      <point x="304" y="115"/>
      <point x="284" y="106"/>
      <point x="253" y="106" type="curve" smooth="yes"/>
      <point x="253" y="106"/>
      <point x="-17" y="106"/>
      <point x="-17" y="106" type="curve" smooth="yes"/>
      <point x="-46" y="106"/>
      <point x="-70" y="82"/>
      <point x="-70" y="53" type="curve" smooth="yes"/>
      <point x="-70" y="24"/>
      <point x="-46" y="0"/>
      <point x="-17" y="0" type="curve" smooth="yes"/>
      <point x="234" y="0" type="line" smooth="yes"/>
      <point x="276" y="0"/>
      <point x="302" y="11"/>
      <point x="317" y="24" type="curve" smooth="yes"/>
      <point x="332" y="36"/>
      <point x="338" y="50"/>
      <point x="339" y="55" type="curve"/>
      <point x="345" y="41"/>
      <point x="354" y="30"/>
      <point x="364" y="21" type="curve" smooth="yes"/>
      <point x="380" y="8"/>
      <point x="402" y="0"/>
      <point x="431" y="0" type="curve" smooth="yes"/>
      <point x="478" y="0" type="line"/>
      <point x="478" y="106" type="line"/>
      <point x="435" y="106" type="line" smooth="yes"/>
    </contour>
    <contour>
      <point x="176" y="192" type="move" name="top"/>
    </contour>
    <contour>
      <point x="164" y="-34" type="move" name="bottom"/>
    </contour>
  </outline>
</glyph>
<glyph name="VaDotbelowar" format="1">
  <advance width="0"/>
  <outline>
    <contour>
      <point x="-27" y="799"/>
      <point x="-52" y="771"/>
      <point x="-67" y="754" type="curve"/>
      <point x="-46" y="742"/>
      <point x="-28" y="725"/>
      <point x="-3" y="700" type="curve"/>
      <point x="25" y="727"/>
      <point x="36" y="743"/>
      <point x="49" y="761" type="curve"/>
      <point x="37" y="780"/>
      <point x="9" y="804"/>
      <point x="-14" y="816" type="curve"/>
    </contour>
    <contour>
      <point x="42" y="1003"/>
      <point x="30" y="986"/>
      <point x="20" y="968" type="curve" smooth="yes"/>
      <point x="6" y="944"/>
      <point x="-4" y="917"/>
      <point x="-4" y="902" type="curve"/>
      <point x="-8" y="923"/>
      <point x="-15" y="945"/>
      <point x="-25" y="965" type="curve" smooth="yes"/>
      <point x="-35" y="984"/>
      <point x="-46" y="1000"/>
      <point x="-60" y="1011" type="curve"/>
      <point x="-75" y="975" type="line"/>
      <point x="-61" y="963"/>
      <point x="-46" y="940"/>
      <point x="-34" y="914" type="curve" smooth="yes"/>
      <point x="-24" y="892"/>
      <point x="-16" y="869"/>
      <point x="-13" y="850" type="curve"/>
      <point x="5" y="850" type="line"/>
      <point x="9" y="869"/>
      <point x="18" y="896"/>
      <point x="30" y="920" type="curve" smooth="yes"/>
      <point x="41" y="943"/>
      <point x="54" y="964"/>
      <point x="67" y="975" type="curve"/>
      <point x="52" y="1011" type="line"/>
    </contour>
    <contour>
      <point x="-3" y="1029" type="move" name="top"/>
    </contour>
    <contour>
      <point x="-3" y="680" type="move" name="_top"/>
    </contour>
  </outline>
</glyph>
<glyph name="uni0615.alt" format="1">
  <advance width="0"/>
  <outline>
    <contour>
      <point x="-72" y="110" type="line"/>
      <point x="-1" y="111" type="line"/>
      <point x="25" y="111"/>
      <point x="42" y="116"/>
      <point x="53" y="124" type="curve"/>
      <point x="63" y="130"/>
      <point x="70" y="137"/>
      <point x="75" y="145" type="curve"/>
      <point x="82" y="155"/>
      <point x="83" y="165"/>
      <point x="85" y="169" type="curve"/>
      <point x="81" y="179"/>
      <point x="77" y="186"/>
      <point x="72" y="192" type="curve" smooth="yes"/>
      <point x="64" y="200"/>
      <point x="53" y="205"/>
      <point x="41" y="205" type="curve" smooth="yes"/>
      <point x="23" y="205"/>
      <point x="8" y="195"/>
      <point x="-7" y="182" type="curve"/>
      <point x="-2" y="197"/>
      <point x="-1" y="214"/>
      <point x="-3" y="231" type="curve" smooth="yes"/>
      <point x="-5" y="247"/>
      <point x="-9" y="263"/>
      <point x="-12" y="276" type="curve"/>
      <point x="-15" y="287"/>
      <point x="-13" y="292"/>
      <point x="-6" y="297" type="curve"/>
      <point x="-15" y="304"/>
      <point x="-22" y="313"/>
      <point x="-27" y="325" type="curve"/>
      <point x="-37" y="325"/>
      <point x="-42" y="315"/>
      <point x="-43" y="310" type="curve"/>
      <point x="-46" y="302"/>
      <point x="-45" y="292"/>
      <point x="-45" y="292" type="curve"/>
      <point x="-40" y="287" type="line"/>
      <point x="-32" y="270"/>
      <point x="-28" y="252"/>
      <point x="-25" y="233" type="curve" smooth="yes"/>
      <point x="-22" y="213"/>
      <point x="-21" y="191"/>
      <point x="-21" y="166" type="curve"/>
      <point x="-27" y="160"/>
      <point x="-32" y="152"/>
      <point x="-36" y="146" type="curve"/>
      <point x="-36" y="146"/>
      <point x="-51" y="145"/>
      <point x="-58" y="145" type="curve" smooth="yes"/>
      <point x="-71" y="145"/>
      <point x="-94" y="147"/>
      <point x="-94" y="147" type="curve"/>
    </contour>
    <contour>
      <point x="-27" y="142"/>
      <point x="-19" y="153"/>
      <point x="-7" y="163" type="curve" smooth="yes"/>
      <point x="4" y="172"/>
      <point x="21" y="180"/>
      <point x="38" y="180" type="curve" smooth="yes"/>
      <point x="48" y="180"/>
      <point x="56" y="178"/>
      <point x="62" y="172" type="curve"/>
      <point x="66" y="170"/>
      <point x="68" y="165"/>
      <point x="72" y="160" type="curve"/>
      <point x="57" y="147"/>
      <point x="38" y="142"/>
      <point x="8" y="142" type="curve" smooth="yes"/>
      <point x="-27" y="142" type="line" smooth="yes"/>
    </contour>
    <contour>
      <point x="-5" y="232" type="move" name="_center"/>
    </contour>
  </outline>
</glyph>
<glyph name="uni064306440649" format="1">
  <advance width="978"/>
  <outline>
    <contour>
      <point x="70" y="-81"/>
      <point x="78" y="-142"/>
      <point x="119" y="-189" type="curve" smooth="yes"/>
      <point x="148" y="-223"/>
      <point x="201" y="-249"/>
      <point x="271" y="-249" type="curve" smooth="yes"/>
      <point x="320" y="-249"/>
      <point x="377" y="-239"/>
      <point x="427" y="-220" type="curve" smooth="yes"/>
      <point x="483" y="-198"/>
      <point x="533" y="-165"/>
      <point x="545" y="-119" type="curve" smooth="yes"/>
      <point x="552" y="-91"/>
      <point x="554" y="-79"/>
      <point x="558" y="-58" type="curve" smooth="yes"/>
      <point x="565" y="-23"/>
      <point x="522" y="10"/>
      <point x="476" y="26" type="curve"/>
      <point x="516" y="34"/>
      <point x="549" y="64"/>
      <point x="558" y="90" type="curve"/>
      <point x="563" y="69"/>
      <point x="573" y="50"/>
      <point x="589" y="35" type="curve" smooth="yes"/>
      <point x="611" y="13"/>
      <point x="643" y="0"/>
      <point x="680" y="0" type="curve" smooth="yes"/>
      <point x="747" y="0"/>
      <point x="792" y="20"/>
      <point x="815" y="55" type="curve" smooth="yes"/>
      <point x="835" y="84"/>
      <point x="844" y="123"/>
      <point x="844" y="170" type="curve" smooth="yes"/>
      <point x="844" y="218"/>
      <point x="819" y="271"/>
      <point x="783" y="317" type="curve" smooth="yes"/>
      <point x="752" y="355"/>
      <point x="713" y="388"/>
      <point x="673" y="409" type="curve"/>
      <point x="687" y="419"/>
      <point x="749" y="449"/>
      <point x="807" y="475" type="curve" smooth="yes"/>
      <point x="861" y="500"/>
      <point x="916" y="526"/>
      <point x="943" y="544" type="curve"/>
      <point x="968" y="657" type="line"/>
      <point x="922" y="628"/>
      <point x="903" y="617"/>
      <point x="827" y="580" type="curve" smooth="yes"/>
      <point x="786" y="560"/>
      <point x="741" y="538"/>
      <point x="698" y="514" type="curve" smooth="yes"/>
      <point x="674" y="500"/>
      <point x="611" y="465"/>
      <point x="583" y="432" type="curve"/>
      <point x="553" y="681" type="line"/>
      <point x="490" y="607" type="line"/>
      <point x="534" y="238" type="line"/>
      <point x="542" y="167" type="line"/>
      <point x="533" y="145"/>
      <point x="518" y="128"/>
      <point x="499" y="115" type="curve" smooth="yes"/>
      <point x="460" y="89"/>
      <point x="407" y="77"/>
      <point x="364" y="74" type="curve"/>
      <point x="338" y="-9" type="line"/>
      <point x="349" y="-30" type="line"/>
      <point x="412" y="-33"/>
      <point x="495" y="-40"/>
      <point x="492" y="-81" type="curve"/>
      <point x="468" y="-104"/>
      <point x="424" y="-120"/>
      <point x="374" y="-128" type="curve" smooth="yes"/>
      <point x="346" y="-133"/>
      <point x="316" y="-135"/>
      <point x="287" y="-135" type="curve" smooth="yes"/>
      <point x="229" y="-135"/>
      <point x="190" y="-121"/>
      <point x="163" y="-102" type="curve" smooth="yes"/>
      <point x="121" y="-72"/>
      <point x="109" y="-33"/>
      <point x="109" y="4" type="curve"/>
      <point x="111" y="52"/>
      <point x="134" y="94"/>
      <point x="143" y="104" type="curve"/>
      <point x="127" y="120" type="line"/>
      <point x="107" y="96"/>
      <point x="95" y="72"/>
      <point x="87" y="46" type="curve" smooth="yes"/>
      <point x="70" y="-4"/>
      <point x="70" y="-50"/>
      <point x="70" y="-63" type="curve" smooth="yes"/>
    </contour>
    <contour>
      <point x="634" y="324"/>
      <point x="673" y="300"/>
      <point x="706" y="271" type="curve" smooth="yes"/>
      <point x="744" y="237"/>
      <point x="774" y="195"/>
      <point x="786" y="151" type="curve"/>
      <point x="767" y="125"/>
      <point x="744" y="106"/>
      <point x="688" y="106" type="curve" smooth="yes"/>
      <point x="665" y="106"/>
      <point x="650" y="117"/>
      <point x="638" y="134" type="curve" smooth="yes"/>
      <point x="623" y="155"/>
      <point x="613" y="190"/>
      <point x="606" y="245" type="curve" smooth="yes"/>
      <point x="594" y="338" type="line"/>
    </contour>
    <contour>
      <point x="704" y="-34" type="move" name="bottom_1"/>
    </contour>
    <contour>
      <point x="492" y="702" type="move" name="top_2"/>
    </contour>
    <contour>
      <point x="652" y="0" type="move" name="caret_2"/>
    </contour>
    <contour>
      <point x="336" y="0" type="move" name="caret_1"/>
    </contour>
    <contour>
      <point x="271" y="-279" type="move" name="bottom_3"/>
    </contour>
    <contour>
      <point x="820" y="634" type="move" name="top_1"/>
    </contour>
    <contour>
      <point x="519" y="-224" type="move" name="bottom_2"/>
    </contour>
    <contour>
      <point x="282" y="86" type="move" name="top_3"/>
    </contour>
  </outline>
</glyph>
<glyph name="uni064406470649" format="1">
  <advance width="845"/>
  <outline>
    <contour>
      <point x="70" y="-81"/>
      <point x="78" y="-142"/>
      <point x="119" y="-189" type="curve" smooth="yes"/>
      <point x="148" y="-223"/>
      <point x="201" y="-249"/>
      <point x="271" y="-249" type="curve" smooth="yes"/>
      <point x="320" y="-249"/>
      <point x="377" y="-239"/>
      <point x="427" y="-220" type="curve" smooth="yes"/>
      <point x="483" y="-198"/>
      <point x="533" y="-165"/>
      <point x="545" y="-119" type="curve" smooth="yes"/>
      <point x="552" y="-91"/>
      <point x="554" y="-79"/>
      <point x="558" y="-58" type="curve" smooth="yes"/>
      <point x="565" y="-23"/>
      <point x="522" y="10"/>
      <point x="476" y="26" type="curve"/>
      <point x="508" y="29"/>
      <point x="554" y="45"/>
      <point x="572" y="60" type="curve"/>
      <point x="631" y="22"/>
      <point x="658" y="-2"/>
      <point x="697" y="-2" type="curve" smooth="yes"/>
      <point x="723" y="-2"/>
      <point x="763" y="33"/>
      <point x="773" y="76" type="curve"/>
      <point x="790" y="137"/>
      <point x="789" y="175"/>
      <point x="772" y="206" type="curve"/>
      <point x="756" y="238"/>
      <point x="723" y="266"/>
      <point x="678" y="298" type="curve" smooth="yes"/>
      <point x="620" y="338" type="line"/>
      <point x="612" y="404"/>
      <point x="601" y="473"/>
      <point x="592" y="535" type="curve" smooth="yes"/>
      <point x="587" y="565"/>
      <point x="592" y="576"/>
      <point x="611" y="597" type="curve"/>
      <point x="577" y="621"/>
      <point x="565" y="641"/>
      <point x="543" y="683" type="curve"/>
      <point x="516" y="678"/>
      <point x="503" y="656"/>
      <point x="497" y="634" type="curve" smooth="yes"/>
      <point x="490" y="608"/>
      <point x="493" y="580"/>
      <point x="493" y="580" type="curve"/>
      <point x="508" y="566" type="line"/>
      <point x="528" y="502"/>
      <point x="550" y="395"/>
      <point x="564" y="315" type="curve"/>
      <point x="529" y="303"/>
      <point x="504" y="279"/>
      <point x="487" y="253" type="curve" smooth="yes"/>
      <point x="470" y="227"/>
      <point x="462" y="199"/>
      <point x="462" y="178" type="curve" smooth="yes"/>
      <point x="462" y="154"/>
      <point x="470" y="128"/>
      <point x="496" y="107" type="curve"/>
      <point x="462" y="83"/>
      <point x="407" y="77"/>
      <point x="364" y="75" type="curve"/>
      <point x="338" y="-9" type="line"/>
      <point x="349" y="-30" type="line"/>
      <point x="412" y="-33"/>
      <point x="495" y="-40"/>
      <point x="492" y="-81" type="curve"/>
      <point x="468" y="-104"/>
      <point x="424" y="-120"/>
      <point x="374" y="-128" type="curve" smooth="yes"/>
      <point x="346" y="-133"/>
      <point x="316" y="-135"/>
      <point x="287" y="-135" type="curve" smooth="yes"/>
      <point x="229" y="-135"/>
      <point x="190" y="-121"/>
      <point x="163" y="-102" type="curve" smooth="yes"/>
      <point x="121" y="-72"/>
      <point x="109" y="-33"/>
      <point x="109" y="4" type="curve"/>
      <point x="111" y="52"/>
      <point x="134" y="94"/>
      <point x="143" y="104" type="curve"/>
      <point x="127" y="120" type="line"/>
      <point x="107" y="96"/>
      <point x="95" y="72"/>
      <point x="87" y="46" type="curve" smooth="yes"/>
      <point x="70" y="-4"/>
      <point x="70" y="-50"/>
      <point x="70" y="-63" type="curve" smooth="yes"/>
    </contour>
    <contour>
      <point x="512" y="232"/>
      <point x="533" y="248"/>
      <point x="556" y="248" type="curve" smooth="yes"/>
      <point x="579" y="248"/>
      <point x="609" y="230"/>
      <point x="615" y="196" type="curve"/>
      <point x="605" y="179"/>
      <point x="591" y="164"/>
      <point x="575" y="152" type="curve"/>
      <point x="525" y="175"/>
      <point x="505" y="188"/>
      <point x="498" y="209" type="curve"/>
    </contour>
    <contour>
      <point x="659" y="151"/>
      <point x="662" y="181"/>
      <point x="642" y="232" type="curve"/>
      <point x="649" y="226"/>
      <point x="674" y="211"/>
      <point x="698" y="187" type="curve" smooth="yes"/>
      <point x="714" y="171"/>
      <point x="730" y="151"/>
      <point x="738" y="128" type="curve"/>
      <point x="733" y="87"/>
      <point x="705" y="84"/>
      <point x="705" y="84" type="curve"/>
      <point x="679" y="96"/>
      <point x="672" y="100"/>
      <point x="638" y="119" type="curve"/>
    </contour>
    <contour>
      <point x="669" y="-55" type="move" name="bottom_1"/>
    </contour>
    <contour>
      <point x="392" y="388" type="move" name="top_2"/>
    </contour>
    <contour>
      <point x="567" y="0" type="move" name="caret_2"/>
    </contour>
    <contour>
      <point x="288" y="0" type="move" name="caret_1"/>
    </contour>
    <contour>
      <point x="271" y="-279" type="move" name="bottom_3"/>
    </contour>
    <contour>
      <point x="488" y="699" type="move" name="top_1"/>
    </contour>
    <contour>
      <point x="497" y="-271" type="move" name="bottom_2"/>
    </contour>
    <contour>
      <point x="271" y="87" type="move" name="top_3"/>
    </contour>
  </outline>
</glyph>
<glyph name="uni066E.fina" format="1">
  <advance width="893"/>
  <outline>
    <contour>
      <point x="821" y="106"/>
      <point x="808" y="113"/>
      <point x="801" y="125" type="curve" smooth="yes"/>
      <point x="796" y="133"/>
      <point x="795" y="142"/>
      <point x="795" y="148" type="curve" smooth="yes"/>
      <point x="795" y="157"/>
      <point x="797" y="164"/>
      <point x="798" y="168" type="curve"/>
      <point x="789" y="175" type="line"/>
      <point x="787" y="173"/>
      <point x="763" y="150"/>
      <point x="720" y="132" type="curve" smooth="yes"/>
      <point x="695" y="122"/>
      <point x="671" y="114"/>
      <point x="623" y="105" type="curve" smooth="yes"/>
      <point x="575" y="96"/>
      <point x="488" y="84"/>
      <point x="392" y="84" type="curve" smooth="yes"/>
      <point x="295" y="84"/>
      <point x="232" y="96"/>
      <point x="192" y="111" type="curve" smooth="yes"/>
      <point x="130" y="134"/>
      <point x="108" y="171"/>
      <point x="108" y="217" type="curve" smooth="yes"/>
      <point x="108" y="257"/>
      <point x="125" y="293"/>
      <point x="132" y="306" type="curve"/>
      <point x="116" y="321" type="line"/>
      <point x="88" y="295"/>
      <point x="60" y="218"/>
      <point x="60" y="162" type="curve" smooth="yes"/>
      <point x="60" y="124"/>
      <point x="73" y="79"/>
      <point x="113" y="43" type="curve" smooth="yes"/>
      <point x="155" y="4"/>
      <point x="228" y="-25"/>
      <point x="348" y="-25" type="curve" smooth="yes"/>
      <point x="442" y="-25"/>
      <point x="541" y="-7"/>
      <point x="601" y="8" type="curve" smooth="yes"/>
      <point x="681" y="28"/>
      <point x="721" y="51"/>
      <point x="753" y="77" type="curve"/>
      <point x="754" y="37"/>
      <point x="785" y="0"/>
      <point x="853" y="0" type="curve" smooth="yes"/>
      <point x="893" y="0" type="line"/>
      <point x="893" y="106" type="line"/>
      <point x="852" y="106" type="line" smooth="yes"/>
    </contour>
    <contour>
      <point x="442" y="219" type="move" name="top"/>
    </contour>
    <contour>
      <point x="429" y="-65" type="move" name="bottom"/>
    </contour>
  </outline>
</glyph>
<glyph name="uni066E0649.fina" format="1">
  <advance width="740"/>
  <outline>
    <contour>
      <point x="667" y="106" type="line"/>
      <point x="620" y="106"/>
      <point x="597" y="125"/>
      <point x="581" y="147" type="curve" smooth="yes"/>
      <point x="568" y="164"/>
      <point x="559" y="182"/>
      <point x="546" y="197" type="curve" smooth="yes"/>
      <point x="533" y="211"/>
      <point x="515" y="221"/>
      <point x="486" y="221" type="curve" smooth="yes"/>
      <point x="457" y="221"/>
      <point x="426" y="200"/>
      <point x="401" y="169" type="curve" smooth="yes"/>
      <point x="381" y="145"/>
      <point x="365" y="114"/>
      <point x="355" y="82" type="curve" smooth="yes"/>
      <point x="349" y="63"/>
      <point x="346" y="39"/>
      <point x="355" y="19" type="curve" smooth="yes"/>
      <point x="362" y="3"/>
      <point x="376" y="-11"/>
      <point x="403" y="-15" type="curve" smooth="yes"/>
      <point x="466" y="-25"/>
      <point x="479" y="-29"/>
      <point x="481" y="-41" type="curve"/>
      <point x="457" y="-62"/>
      <point x="429" y="-78"/>
      <point x="396" y="-89" type="curve" smooth="yes"/>
      <point x="362" y="-100"/>
      <point x="324" y="-105"/>
      <point x="281" y="-105" type="curve" smooth="yes"/>
      <point x="229" y="-105"/>
      <point x="190" y="-90"/>
      <point x="164" y="-72" type="curve" smooth="yes"/>
      <point x="124" y="-44"/>
      <point x="109" y="-7"/>
      <point x="110" y="34" type="curve" smooth="yes"/>
      <point x="111" y="82"/>
      <point x="134" y="124"/>
      <point x="143" y="134" type="curve"/>
      <point x="127" y="150" type="line"/>
      <point x="105" y="126"/>
      <point x="94" y="98"/>
      <point x="87" y="76" type="curve" smooth="yes"/>
      <point x="70" y="24"/>
      <point x="70" y="-18"/>
      <point x="70" y="-20" type="curve" smooth="yes"/>
      <point x="70" y="-58"/>
      <point x="79" y="-117"/>
      <point x="121" y="-163" type="curve" smooth="yes"/>
      <point x="150" y="-195"/>
      <point x="204" y="-218"/>
      <point x="278" y="-218" type="curve" smooth="yes"/>
      <point x="325" y="-218"/>
      <point x="381" y="-201"/>
      <point x="427" y="-175" type="curve" smooth="yes"/>
      <point x="472" y="-151"/>
      <point x="507" y="-120"/>
      <point x="517" y="-89" type="curve" smooth="yes"/>
      <point x="521" y="-76"/>
      <point x="525" y="-57"/>
      <point x="531" y="-25" type="curve" smooth="yes"/>
      <point x="543" y="34"/>
      <point x="509" y="46"/>
      <point x="473" y="54" type="curve" smooth="yes"/>
      <point x="449" y="59"/>
      <point x="425" y="62"/>
      <point x="413" y="76" type="curve"/>
      <point x="420" y="95"/>
      <point x="443" y="126"/>
      <point x="476" y="126" type="curve" smooth="yes"/>
      <point x="524" y="126"/>
      <point x="547" y="98"/>
      <point x="568" y="61" type="curve" smooth="yes"/>
      <point x="585" y="32"/>
      <point x="611" y="0"/>
      <point x="661" y="0" type="curve"/>
      <point x="740" y="0" type="line"/>
      <point x="740" y="106" type="line"/>
    </contour>
    <contour>
      <point x="377" y="0" type="move" name="caret_1"/>
    </contour>
    <contour>
      <point x="551" y="-150" type="move" name="bottom_1"/>
    </contour>
    <contour>
      <point x="486" y="251" type="move" name="top_1"/>
    </contour>
    <contour>
      <point x="270" y="132" type="move" name="top_2"/>
    </contour>
    <contour>
      <point x="288" y="-248" type="move" name="bottom_2"/>
    </contour>
  </outline>
</glyph>
<glyph name="uni066E06BA.fina" format="1">
  <advance width="824"/>
  <outline>
    <contour>
      <point x="70" y="-37"/>
      <point x="80" y="-97"/>
      <point x="126" y="-140" type="curve" smooth="yes"/>
      <point x="157" y="-169"/>
      <point x="205" y="-191"/>
      <point x="276" y="-191" type="curve" smooth="yes"/>
      <point x="340" y="-191"/>
      <point x="395" y="-173"/>
      <point x="435" y="-139" type="curve" smooth="yes"/>
      <point x="475" y="-105"/>
      <point x="503" y="-51"/>
      <point x="503" y="12" type="curve" smooth="yes"/>
      <point x="503" y="38"/>
      <point x="498" y="63"/>
      <point x="493" y="83" type="curve"/>
      <point x="508" y="72"/>
      <point x="530" y="67"/>
      <point x="554" y="67" type="curve" smooth="yes"/>
      <point x="602" y="67"/>
      <point x="656" y="88"/>
      <point x="668" y="124" type="curve"/>
      <point x="667" y="93"/>
      <point x="675" y="64"/>
      <point x="691" y="43" type="curve" smooth="yes"/>
      <point x="711" y="16"/>
      <point x="743" y="0"/>
      <point x="785" y="0" type="curve"/>
      <point x="824" y="0" type="line"/>
      <point x="824" y="106" type="line"/>
      <point x="787" y="106" type="line" smooth="yes"/>
      <point x="698" y="106"/>
      <point x="697" y="197"/>
      <point x="697" y="256" type="curve"/>
      <point x="682" y="264" type="line"/>
      <point x="680" y="254"/>
      <point x="675" y="227"/>
      <point x="655" y="207" type="curve" smooth="yes"/>
      <point x="633" y="184"/>
      <point x="595" y="171"/>
      <point x="546" y="173" type="curve" smooth="yes"/>
      <point x="496" y="175"/>
      <point x="455" y="193"/>
      <point x="421" y="227" type="curve"/>
      <point x="383" y="129" type="line"/>
      <point x="421" y="77"/>
      <point x="461" y="14"/>
      <point x="461" y="14" type="curve"/>
      <point x="448" y="-20"/>
      <point x="402" y="-73"/>
      <point x="289" y="-73" type="curve" smooth="yes"/>
      <point x="231" y="-73"/>
      <point x="190" y="-59"/>
      <point x="163" y="-40" type="curve" smooth="yes"/>
      <point x="114" y="-6"/>
      <point x="109" y="45"/>
      <point x="109" y="65" type="curve" smooth="yes"/>
      <point x="109" y="106"/>
      <point x="129" y="145"/>
      <point x="143" y="162" type="curve"/>
      <point x="127" y="178" type="line"/>
      <point x="107" y="155"/>
      <point x="94" y="128"/>
      <point x="86" y="104" type="curve" smooth="yes"/>
      <point x="71" y="59"/>
      <point x="70" y="10"/>
      <point x="70" y="-1" type="curve" smooth="yes"/>
    </contour>
    <contour>
      <point x="412" y="0" type="move" name="caret_1"/>
    </contour>
    <contour>
      <point x="601" y="-34" type="move" name="bottom_1"/>
    </contour>
    <contour>
      <point x="554" y="264" type="move" name="top_1"/>
    </contour>
    <contour>
      <point x="264" y="-3" type="move" name="top_2"/>
    </contour>
    <contour>
      <point x="279" y="-225" type="move" name="bottom_2"/>
    </contour>
  </outline>
</glyph>
<glyph name="wavyhamzaabovear" format="1">
  <advance width="0"/>
  <outline>
    <contour>
      <point x="22" y="773"/>
      <point x="5" y="795"/>
      <point x="2" y="801" type="curve"/>
      <point x="3" y="802"/>
      <point x="20" y="815"/>
      <point x="33" y="815" type="curve" smooth="yes"/>
      <point x="36" y="815"/>
      <point x="47" y="811"/>
      <point x="53" y="798" type="curve"/>
      <point x="73" y="816" type="line"/>
      <point x="73" y="816"/>
      <point x="67" y="849"/>
      <point x="40" y="849" type="curve" smooth="yes"/>
      <point x="10" y="849"/>
      <point x="-22" y="805"/>
      <point x="-25" y="801" type="curve"/>
      <point x="-26" y="798"/>
      <point x="-28" y="795"/>
      <point x="-28" y="792" type="curve" smooth="yes"/>
      <point x="-28" y="780"/>
      <point x="-20" y="761"/>
      <point x="13" y="751" type="curve"/>
      <point x="10" y="748"/>
      <point x="4" y="744"/>
      <point x="-4" y="744" type="curve" smooth="yes"/>
      <point x="-25" y="744"/>
      <point x="-30" y="755"/>
      <point x="-44" y="755" type="curve" smooth="yes"/>
      <point x="-54" y="755"/>
      <point x="-65" y="751"/>
      <point x="-73" y="741" type="curve" smooth="yes"/>
      <point x="-78" y="735"/>
      <point x="-83" y="727"/>
      <point x="-86" y="718" type="curve"/>
      <point x="-79" y="713" type="line"/>
      <point x="-74" y="718"/>
      <point x="-68" y="720"/>
      <point x="-62" y="720" type="curve" smooth="yes"/>
      <point x="-46" y="720"/>
      <point x="-36" y="700"/>
      <point x="-14" y="700" type="curve" smooth="yes"/>
      <point x="8" y="700"/>
      <point x="18" y="712"/>
      <point x="30" y="723" type="curve" smooth="yes"/>
      <point x="39" y="734"/>
      <point x="51" y="746"/>
      <point x="72" y="751" type="curve"/>
      <point x="87" y="788" type="line"/>
      <point x="56" y="781" type="line" smooth="yes"/>
    </contour>
    <contour>
      <point x="1" y="849" type="move" name="top"/>
    </contour>
    <contour>
      <point x="1" y="680" type="move" name="_top"/>
    </contour>
  </outline>
</glyph>
